<svg id="visual" viewBox="0 0 900 600" width="900" height="600" xmlns="http://www.w3.org/2000/svg" xmlns:xlink="http://www.w3.org/1999/xlink" version="1.1"><rect x="0" y="0" width="900" height="600" fill="#001220"></rect><defs><linearGradient id="grad1_0" x1="33.3%" y1="0%" x2="100%" y2="100%"><stop offset="20%" stop-color="#001220" stop-opacity="1"></stop><stop offset="80%" stop-color="#001220" stop-opacity="1"></stop></linearGradient></defs><defs><linearGradient id="grad2_0" x1="0%" y1="0%" x2="66.7%" y2="100%"><stop offset="20%" stop-color="#001220" stop-opacity="1"></stop><stop offset="80%" stop-color="#001220" stop-opacity="1"></stop></linearGradient></defs><g transform="translate(900, 0)"><path d="M0 486.7C-70 485.9 -140.1 485.1 -186.3 449.7C-232.5 414.3 -254.8 344.4 -297.7 297.7C-340.6 251 -403.9 227.5 -438.8 181.8C-473.8 136 -480.3 68 -486.7 0L0 0Z" fill="#FBAE3C"></path></g><g transform="translate(0, 600)"><path d="M0 -486.7C68.6 -478.2 137.2 -469.7 178.3 -430.5C219.5 -391.3 233.2 -321.5 280.7 -280.7C328.3 -239.9 409.7 -228.2 449.7 -186.3C489.7 -144.3 488.2 -72.2 486.7 0L0 0Z" fill="#FBAE3C"></path></g></svg>